<?xml version="1.0" encoding="UTF-8" standalone="no"?>
<svg
   xmlns:dc="http://purl.org/dc/elements/1.1/"
   xmlns:cc="http://creativecommons.org/ns#"
   xmlns:rdf="http://www.w3.org/1999/02/22-rdf-syntax-ns#"
   xmlns:svg="http://www.w3.org/2000/svg"
   xmlns="http://www.w3.org/2000/svg"
   viewBox="0 0 1066.6667 754.66669"
   height="754.66669"
   width="1066.6667"
   xml:space="preserve"
   id="svg2"
   version="1.1"><metadata
     id="metadata8"><rdf:RDF><cc:Work
         rdf:about=""><dc:format>image/svg+xml</dc:format><dc:type
           rdf:resource="http://purl.org/dc/dcmitype/StillImage" /></cc:Work></rdf:RDF></metadata><defs
     id="defs6"><clipPath
       id="clipPath18"
       clipPathUnits="userSpaceOnUse"><path
         id="path16"
         d="M 0,566 H 800 V 0 H 0 Z" /></clipPath><clipPath
       id="clipPath30"
       clipPathUnits="userSpaceOnUse"><path
         id="path28"
         d="M 314.595,197.591 431.482,81.441 c 2.305,0.37 4.609,0.739 6.914,1.202 v 0 c 82.042,15.579 146.659,80.335 162.102,162.472 v 0 c 0.414,2.071 0.738,4.19 1.057,6.311 v 0 l -116.15,116.982 z" /></clipPath><linearGradient
       id="linearGradient42"
       spreadMethod="pad"
       gradientTransform="matrix(161.76547,-161.76547,-161.76547,-161.76547,436.07227,246.92773)"
       gradientUnits="userSpaceOnUse"
       y2="0"
       x2="1"
       y1="0"
       x1="0"><stop
         id="stop36"
         offset="0"
         style="stop-opacity:1;stop-color:#36767d" /><stop
         id="stop38"
         offset="0.42861429"
         style="stop-opacity:1;stop-color:#4aa1af" /><stop
         id="stop40"
         offset="1"
         style="stop-opacity:1;stop-color:#4aa1af" /></linearGradient><clipPath
       id="clipPath52"
       clipPathUnits="userSpaceOnUse"><path
         id="path50"
         d="M 0,566 H 800 V 0 H 0 Z" /></clipPath></defs><g
     transform="matrix(1.3333333,0,0,-1.3333333,0,754.66667)"
     id="g10"><g
       id="g12"><g
         clip-path="url(#clipPath18)"
         id="g14"><g
           transform="translate(604,282.9995)"
           id="g20"><path
             id="path22"
             style="fill:#4aa1af;fill-opacity:1;fill-rule:nonzero;stroke:none"
             d="m 0,0 c 0,-10.74 -0.828,-21.294 -2.444,-31.574 -0.32,-2.121 -0.644,-4.24 -1.058,-6.31 -15.443,-82.137 -80.061,-146.893 -162.102,-162.473 -2.304,-0.463 -4.609,-0.832 -6.914,-1.201 -10.235,-1.611 -20.74,-2.44 -31.48,-2.44 C -316.691,-203.998 -408,-112.693 -408,0 c 0,112.645 91.309,203.998 204.002,203.998 C -91.354,203.998 0,112.645 0,0" /></g></g></g><g
       id="g24"><g
         clip-path="url(#clipPath30)"
         id="g26"><g
           id="g32"><g
             id="g34"><path
               id="path44"
               style="fill:url(#linearGradient42);stroke:none"
               d="M 314.595,197.591 431.482,81.441 c 2.305,0.37 4.609,0.739 6.914,1.202 v 0 c 82.042,15.579 146.659,80.335 162.102,162.472 v 0 c 0.414,2.071 0.738,4.19 1.057,6.311 v 0 l -116.15,116.982 z" /></g></g></g></g><g
       id="g46"><g
         clip-path="url(#clipPath52)"
         id="g48"><g
           transform="translate(485.4189,197.5781)"
           id="g54"><path
             id="path56"
             style="fill:#eb464a;fill-opacity:1;fill-rule:nonzero;stroke:none"
             d="m 0,0 c -47.176,-47.176 -123.667,-47.176 -170.838,-0.004 -47.181,47.18 -47.181,123.671 -0.005,170.847 47.176,47.176 123.667,47.176 170.848,-0.005 C 47.176,123.667 47.176,47.176 0,0" /></g><g
           transform="translate(436.4971,312.3872)"
           id="g58"><path
             id="path60"
             style="fill:#152f30;fill-opacity:1;fill-rule:nonzero;stroke:none"
             d="m 0,0 c 23.855,-22.249 53.576,-34.698 84.008,-37.417 0.243,3.651 0.315,7.31 0.225,10.969 -27.7,2.633 -54.719,14.008 -76.496,34.185 l 44.651,44.651 c -1.13,1.229 -2.273,2.453 -3.461,3.641 -1.194,1.194 -2.413,2.327 -3.637,3.457 L 0.639,14.836 c -20.183,21.776 -31.562,48.81 -34.19,76.509 -3.664,0.09 -7.319,0.018 -10.97,-0.23 2.714,-30.436 15.169,-60.156 37.418,-84.021 l -29.392,-29.392 -81.789,81.793 c -1.224,-1.134 -2.445,-2.268 -3.637,-3.461 -1.192,-1.193 -2.327,-2.413 -3.461,-3.641 l 81.793,-81.785 -29.391,-29.392 c -23.861,22.254 -53.59,34.703 -84.027,37.422 -0.238,-3.655 -0.315,-7.314 -0.224,-10.974 27.699,-2.627 54.732,-14.006 76.508,-34.19 l -44.65,-44.65 c 1.13,-1.225 2.264,-2.449 3.457,-3.637 1.187,-1.189 2.412,-2.332 3.637,-3.461 l 44.65,44.65 c 20.183,-21.771 31.558,-48.796 34.191,-76.496 3.659,-0.089 7.318,-0.017 10.973,0.225 -2.719,30.432 -15.169,60.152 -37.418,84.014 l 29.388,29.386 81.78,-81.775 c 1.225,1.129 2.444,2.268 3.637,3.461 1.193,1.193 2.332,2.412 3.462,3.637 l -81.78,81.78 z" /></g></g></g></g></svg>